<?xml version="1.0" encoding="utf-8"?><svg version="1.1" id="Layer_1" xmlns="http://www.w3.org/2000/svg" xmlns:xlink="http://www.w3.org/1999/xlink" x="0px" y="0px" viewBox="0 0 116.17 122.88" style="enable-background:new 0 0 116.17 122.88" xml:space="preserve"><style type="text/css"><![CDATA[
	.st0{fill-rule:evenodd;clip-rule:evenodd;}
]]></style><g><path class="st0" d="M70.25,112.11H5.94c-5.09-0.39-6.32-4.05-5.85-8.28c2.79-24.92,30.74-17.71,41.97-27.82l0,0 c5.6,16.48,29.01,17.09,34.26,0c1.21,1.09,2.89,2.01,4.86,2.82c-1.81,1.1-3.52,2.43-5.08,3.99 C68.18,90.73,66.23,102.36,70.25,112.11L70.25,112.11z M110,86.96c8.22,8.22,8.22,21.54,0,29.76c-8.22,8.22-21.54,8.22-29.76,0 s-8.22-21.54,0-29.76C88.46,78.74,101.79,78.74,110,86.96L110,86.96L110,86.96z M92.97,90.16h4.3c0.59,0,1.07,0.48,1.07,1.07v7.38 h7.38c0.59,0,1.07,0.48,1.07,1.07v4.3c0,0.59-0.48,1.07-1.07,1.07h-7.38v7.38c0,0.59-0.48,1.07-1.07,1.07h-4.3 c-0.59,0-1.07-0.48-1.07-1.07v-7.38h-7.38c-0.59,0-1.07-0.48-1.07-1.07v-4.3c0-0.59,0.48-1.07,1.07-1.07h7.38v-7.38 C91.9,90.65,92.38,90.16,92.97,90.16L92.97,90.16z M41.91,59.48c2.13,3.37,4.35,6.82,7.11,9.36c2.66,2.43,5.89,4.08,10.15,4.09 c4.63,0.01,8-1.7,10.75-4.27c2.86-2.67,5.1-6.33,7.33-9.99l5.97-9.83c1.11-2.55,1.52-4.24,1.26-5.24 c-0.16-0.59-0.81-0.88-1.92-0.93c-0.23-0.01-0.48-0.01-0.72-0.01c-0.26,0.01-0.54,0.03-0.84,0.05c-0.17,0.01-0.31,0-0.46-0.03 c-0.52,0.03-1.08-0.01-1.63-0.09l2.04-9.05c-15.17,2.39-26.51-8.87-42.53-2.25l1.16,10.66c-0.63,0.04-1.25,0.01-1.82-0.07 C28.56,42.18,40.1,56.59,41.91,59.48L41.91,59.48L41.91,59.48z M84.62,39.96c1.47,0.45,2.41,1.38,2.8,2.89 c0.43,1.67-0.04,4.02-1.46,7.24l0,0c-0.03,0.06-0.05,0.12-0.09,0.17l-6.03,9.94c-2.33,3.83-4.68,7.68-7.84,10.62 c-3.26,3.06-7.29,5.09-12.79,5.07c-5.13-0.01-9.01-1.97-12.18-4.88c-3.83-3.52-21.49-25.62-13.6-30.95 c0.39-0.25,0.82-0.48,1.28-0.65c-0.35-4.57-0.47-10.33-0.25-15.15c0.12-1.14,0.34-2.28,0.65-3.43c1.35-4.84,4.75-8.74,8.95-11.41 c2.32-1.48,4.86-2.59,7.5-3.33c1.68-0.48-1.43-5.86,0.3-6.02c8.4-0.87,22.02,6.81,27.89,13.17c2.93,3.18,4.79,7.4,5.19,12.98 L84.62,39.96L84.62,39.96L84.62,39.96L84.62,39.96L84.62,39.96z"/></g></svg>